<svg xmlns="http://www.w3.org/2000/svg" viewBox="0 0 24 24">
  <path fill="#000" d="M12 2.25a9.75 9.75 0 0 0-3.08 19c.49.09.67-.21.67-.47v-1.86c-2.73.59-3.3-1.16-3.3-1.16-.45-1.14-1.09-1.44-1.09-1.44-.89-.61.07-.6.07-.6.98.07 1.5 1.01 1.5 1.01.88 1.5 2.3 1.07 2.86.82.09-.63.34-1.07.62-1.32-2.18-.25-4.47-1.09-4.47-4.82 0-1.07.38-1.94 1.01-2.62-.1-.25-.44-1.24.1-2.58 0 0 .82-.26 2.68 1a9.3 9.3 0 0 1 4.88 0c1.86-1.26 2.68-1 2.68-1 .54 1.34.2 2.33.1 2.58.63.68 1.01 1.55 1.01 2.62 0 3.74-2.3 4.57-4.48 4.82.35.3.66.9.66 1.82v2.7c0 .26.18.57.67.47A9.75 9.75 0 0 0 12 2.25Z"/>
</svg>
